# xmcd CD database file
#
# Track frame offsets:
#	150
#	12329
#	25346
#	38476
#	52627
#	65028
#	77524
#	92066
#	106200
#	118017
#	130912
#	142935
#	157501
#	171587
#	186373
#	199916
#	215213
#	229551
#	244161
#	264510
#
# Disc length: 3720 seconds
#
# Revision: 3
# Processed by: cddbd v1.5.2PL0 Copyright (c) Steve Scherf et al.
# Submitted via: CDex 1.51
#
DISCID=0c0e8614
DTITLE=Ella Fitzgerald - Everyone's Wrong But Me  [CD 02-10]
DYEAR=1900
DGENRE=Jazz
TTITLE0=My Last Affair
TTITLE1=Organ Grinder's Swing
TTITLE2=Shine
TTITLE3=Darktown Strutters Ball
TTITLE4=Take Another Guess
TTITLE5=Big Boy Blue
TTITLE6=Dedicated To You
TTITLE7=You Showed Me The Way
TTITLE8=Crying Mood
TTITLE9=Love Is The Thing So They Say
TTITLE10=All Over Nothing At All
TTITLE11=If You Ever Should Leave
TTITLE12=Everyone's Wrong But Me
TTITLE13=Deep In The Heart Of The South
TTITLE14=Just A Simple Melody
TTITLE15=I Got A Guy
TTITLE16=Holiday In Harlem
TTITLE17=Rock It For Me
TTITLE18=I Want To Be Happy
TTITLE19=The Dipsy Doodle
EXTD=
EXTT0=
EXTT1=
EXTT2=
EXTT3=
EXTT4=
EXTT5=
EXTT6=
EXTT7=
EXTT8=
EXTT9=
EXTT10=
EXTT11=
EXTT12=
EXTT13=
EXTT14=
EXTT15=
EXTT16=
EXTT17=
EXTT18=
EXTT19=
PLAYORDER=
